<?xml version="1.0" encoding="UTF-8"?>
<!DOCTYPE svg PUBLIC "-//W3C//DTD SVG 1.1//EN" "http://www.w3.org/Graphics/SVG/1.1/DTD/svg11.dtd">
<svg version="1.1" xmlns="http://www.w3.org/2000/svg" xmlns:xlink="http://www.w3.org/1999/xlink" x="0" y="0" width="743" height="725" viewBox="0, 0, 743, 725">
  <g id="Layer_1">
    <g>
      <path d="M312.73,22.528 L344.79,41.704 L325.914,60.88 L301.645,32.116 L310.634,23.127 z" fill="#445D70"/>
      <path d="M312.73,22.528 L344.79,41.704 L325.914,60.88 L301.645,32.116 L310.634,23.127 z" fill-opacity="0" stroke="#000000" stroke-width="1"/>
    </g>
    <g>
      <path d="M284.34,4.688 C281.718,4.731 279.087,5.644 276.465,8.438 L254.309,39.188 L257.965,42.375 L218.371,97.626 L213.934,95.594 L58.904,314.874 L66.966,320.405 L60.122,330.405 L49.841,331.343 L23.872,365.343 L20.185,366.343 L4.404,388.374 L15.81,434.499 L453.84,717.939 C464.852,723.797 471.381,718.434 476.028,708.377 L735.498,287.686 C740.493,280.809 736.792,276.423 730.685,272.717 L341.305,35.217 C339.326,41.717 330.219,49.438 320.649,41.905 C312.937,36.284 313.323,29.251 318.587,21.374 L294.431,6.655 C291.06,6.026 287.708,4.631 284.337,4.686 z M434.28,645.158 L454.124,658.783 L438.343,681.783 L418.499,668.158 L434.28,645.158 z" fill="#43637B"/>
      <path d="M284.34,4.688 C281.718,4.731 279.087,5.644 276.465,8.438 L254.309,39.188 L257.965,42.375 L218.371,97.626 L213.934,95.594 L58.904,314.874 L66.966,320.405 L60.122,330.405 L49.841,331.343 L23.872,365.343 L20.185,366.343 L4.404,388.374 L15.81,434.499 L453.84,717.939 C464.852,723.797 471.381,718.434 476.028,708.377 L735.498,287.686 C740.493,280.809 736.792,276.423 730.685,272.717 L341.305,35.217 C339.326,41.717 330.219,49.438 320.649,41.905 C312.937,36.284 313.323,29.251 318.587,21.374 L294.431,6.655 C291.06,6.026 287.708,4.631 284.337,4.686 z M434.28,645.158 L454.124,658.783 L438.343,681.783 L418.499,668.158 L434.28,645.158 z" fill-opacity="0" stroke="#000000" stroke-width="1"/>
    </g>
    <path d="M206.81,133.09 L261.641,58.484 C263.903,55.158 266.787,53.905 267.933,54.739 C268.98,56.354 268.021,57.969 267.075,59.584 C248.56,86.024 229.226,112.359 210.256,138.633 L204.114,136.236 z" fill-opacity="0" stroke="#000000" stroke-width="0.8"/>
    <path d="M257.89,42.303 L400.81,128.294 C407.295,131.478 408.615,140.571 405.904,143.275 L223.734,405.745 L160.214,365.596" fill-opacity="0" stroke="#000000" stroke-width="0.6"/>
    <path d="M99.782,448.204 C96.031,454.152 89.059,456.494 84.21,453.436 C79.36,450.378 78.469,443.076 82.22,437.128 C85.971,431.18 92.943,428.838 97.793,431.896 C102.643,434.954 103.533,442.256 99.782,448.204 z" fill-opacity="0" stroke="#000000" stroke-width="1" stroke-linecap="round" stroke-linejoin="round"/>
    <path d="M26.998,434.298 C28.468,428.398 33.802,424.028 40.156,424.028 C47.645,424.028 53.715,430.098 53.715,437.587 C53.715,440.517 52.935,445.029 50.306,446.797" fill-opacity="0" stroke="#000000" stroke-width="1" stroke-linecap="round" stroke-linejoin="round"/>
    <g>
      <path d="M713.02,325.15 L662.684,292.791 C658.234,289.901 650.89,288.359 646.804,293.39 L441.264,613.09 C439.326,618.009 437.455,620.565 441.863,627.771 L501.488,667.321 z" fill="#000000"/>
      <path d="M713.02,325.15 L662.684,292.791 C658.234,289.901 650.89,288.359 646.804,293.39 L441.264,613.09 C439.326,618.009 437.455,620.565 441.863,627.771 L501.488,667.321 z" fill-opacity="0" stroke="#000000" stroke-width="1"/>
    </g>
    <path d="M575.75,353.47 L622.148,281.648 C624.197,278.302 626.727,275.943 630.402,275.931 C637.697,276.019 638.068,284.317 635.072,288.64 L588.038,365.335 C582.221,375.272 572.931,372.258 571.647,365.776 C570.947,362.243 572.716,358.34 575.749,353.47 z" fill-opacity="0" stroke="#000000" stroke-width="0.8"/>
    <path d="M455.62,350.08 C456.436,389.811 418.642,427.382 377.442,424.444 C339.277,421.722 299.634,386.221 299.264,347.961 C298.84,304.19 332.057,277.343 370.239,274.868 C408.693,272.375 454.608,300.782 455.62,350.08 z" fill="#000000"/>
    <path d="M445.869,347.962 C445.869,386.223 414.851,417.241 376.589,417.241 C338.328,417.241 303.496,386.223 303.496,347.962 C303.496,309.7 338.328,278.682 376.589,278.682 C414.851,278.682 445.869,309.7 445.869,347.962 z" fill="#CDCDCD"/>
    <g>
      <path d="M358.149,354.533 L360.403,336.784 C360.698,334.462 362.819,332.819 365.141,333.114 L382.89,335.369 C385.212,335.664 386.855,337.785 386.56,340.106 L384.305,357.856 C384.01,360.177 381.889,361.82 379.567,361.525 L361.818,359.271 C359.497,358.976 357.854,356.855 358.149,354.533" fill="#000000"/>
      <path d="M358.149,354.533 L360.403,336.784 C360.698,334.462 362.819,332.819 365.141,333.114 L382.89,335.369 C385.212,335.664 386.855,337.785 386.56,340.106 L384.305,357.856 C384.01,360.177 381.889,361.82 379.567,361.525 L361.818,359.271 C359.497,358.976 357.854,356.855 358.149,354.533" fill-opacity="0" stroke="#000000" stroke-width="1"/>
    </g>
    <g>
      <path d="M372.271,291.805 L410.897,295.801 C413.225,296.042 414.917,298.124 414.676,300.452 L412.539,321.104 C412.299,323.432 410.216,325.124 407.889,324.883 L369.263,320.887 C366.935,320.646 365.243,318.564 365.484,316.236 L367.621,295.584 C367.861,293.256 369.944,291.564 372.271,291.805" fill="#000000"/>
      <path d="M372.271,291.805 L410.897,295.801 C413.225,296.042 414.917,298.124 414.676,300.452 L412.539,321.104 C412.299,323.432 410.216,325.124 407.889,324.883 L369.263,320.887 C366.935,320.646 365.243,318.564 365.484,316.236 L367.621,295.584 C367.861,293.256 369.944,291.564 372.271,291.805" fill-opacity="0" stroke="#000000" stroke-width="1"/>
    </g>
    <path d="M214.03,94.97 L58.94,315.25 L203.06,404.25 C211.619,409.052 218.369,409.72 224.622,401.562 L359.842,201.152 C364.293,194.423 367.023,187.52 354.779,179.122 L214.029,94.965 z M222.686,113.158 C223.501,113.189 224.319,113.482 225.03,114.002 L229.155,117.002 C231.05,118.387 231.447,121.013 230.061,122.908 L222.124,133.783 C220.738,135.678 218.081,136.075 216.186,134.689 L212.092,131.689 C210.197,130.304 209.769,127.678 211.155,125.783 L219.124,114.908 C219.99,113.724 221.328,113.106 222.686,113.158 z" fill="#D6D6D6"/>
    <g>
      <path d="M113.03,268.73 L120.657,272.967 L109.852,286.95 C107.277,289.699 106.844,292.282 109.852,294.154 L231.252,369.578 L268.964,312.375 L149.894,239.07 C146.346,236.677 144.719,237.753 143.962,239.07 L132.733,254.748 L126.165,250.934 z" fill="#43637B"/>
      <path d="M113.03,268.73 L120.657,272.967 L109.852,286.95 C107.277,289.699 106.844,292.282 109.852,294.154 L231.252,369.578 L268.964,312.375 L149.894,239.07 C146.346,236.677 144.719,237.753 143.962,239.07 L132.733,254.748 L126.165,250.934 z" fill-opacity="0" stroke="#000000" stroke-width="0.8"/>
    </g>
    <path d="M211.353,125.854 L219.178,115.152 C220.537,113.292 223.148,112.887 225.008,114.247 L229.049,117.202 C230.909,118.561 231.314,121.172 229.954,123.032 L222.129,133.733 C220.769,135.593 218.159,135.998 216.299,134.638 L212.258,131.684 C210.398,130.324 209.993,127.714 211.353,125.854" fill-opacity="0" stroke="#000000" stroke-width="0.394"/>
    <path d="M496.39,676 L433.469,632.555 C427.079,627.062 428.431,621.811 430.473,618.772 L640.503,289.492 C647.466,280.576 653.309,283.239 657.881,284.698 L715.408,319.754" fill-opacity="0" stroke="#000000" stroke-width="1"/>
    <path d="M343.632,77.14 C346.15,81.317 351.547,82.489 355.687,79.757 C359.827,77.026 361.142,71.425 358.624,67.248 C356.106,63.07 350.709,61.899 346.569,64.63 C342.429,67.362 341.114,72.963 343.632,77.14 z" fill-opacity="0" stroke="#000000" stroke-width="0.991" stroke-linecap="round" stroke-linejoin="round"/>
    <path d="M27.79,433.08 C36.367,426.811 43.884,429.605 53.108,434.953 C51.596,428.859 49.414,427.689 44.269,424.766 C41.908,423.888 39.367,423.28 35.43,424.766 C31.121,427.339 29.697,428.722 27.79,433.08 z" fill="#000000"/>
    <path d="M87.82,432.5 C98.58,436.69 91.487,451.779 84.748,453.369 L88.138,454.958 L92.799,454.216 L97.46,451.568 L100.532,447.331 L102.439,441.716 L101.062,435.361 L98.095,431.759 L93.223,430.7 L88.773,431.547 z" fill="#000000"/>
    <path d="M345.68,65.67 C356.937,66.519 355.2,76.139 347.627,80.651 L353.021,81.1 L356.616,79.003 L359.612,75.857 L359.762,70.763 L358.414,67.318 C357.595,66.358 356.68,65.496 355.686,64.821 C352.857,62.901 349.388,62.495 345.68,65.67 z" fill="#000000"/>
  </g>
</svg>
